<svg viewBox="-2.5 82.8648 380 273.2704" width="5000" height="3595.6631578947367" xmlns="http://www.w3.org/2000/svg" xmlns:xlink="http://www.w3.org/1999/xlink" preserveAspectRatio="none"><defs></defs><style>.aaPBVVfuKfillColor {fill:#2E2E2E;fill-opacity:0;}.aaPBVVfuKstrokeColor-str {stroke:#E35F21;stroke-opacity:0.2;}.companyName {fill:#EEF8F7;fill-opacity:1;}.icon1 {fill:#E35F21;fill-opacity:1;}</style><g opacity="1" transform="rotate(0 50.8545 82.8648)">
<svg width="273.291" height="273.2704" x="50.8545" y="82.8648" version="1.1" preserveAspectRatio="none" viewBox="0 0 273.291 273.2704">
  <rect x="2.5" y="2.5" width="268.291" height="268.2704" class="aaPBVVfuKfillColor aaPBVVfuKstrokeColor-str" style="stroke-width:5;" rx="0%" ry="0%" />
</svg>
</g><g opacity="1" transform="rotate(0 96.1266 264.7721)">
<svg width="182.7468" height="18.1088" x="96.1266" y="264.7721" version="1.1" preserveAspectRatio="none" viewBox="1.04 -29.2 381.56 37.8">
  <g transform="matrix(1 0 0 1 0 0)" class="icon1"><path d="M21.96 0L19.16-7.32L7.20-7.32L4.40 0L1.04 0L11.32-26.40L15.12-26.40L25.36 0L21.96 0ZM8.36-10.32L18-10.32L14.44-19.68L13.20-23.36L13.12-23.36L11.96-19.80L8.36-10.32Z M39.16-29.20L39.16-5.36Q39.16-3.84 39.62-3.26Q40.08-2.68 41.32-2.68L41.32-2.68Q42.16-2.68 42.78-2.80Q43.40-2.92 44.24-3.24L44.24-3.24L43.72-0.16Q42.40 0.40 40.76 0.40L40.76 0.40Q38.32 0.40 37.14-0.92Q35.96-2.24 35.96-4.96L35.96-4.96L35.96-29.20L39.16-29.20Z M79.16-20L82.72-20L75.76 0L72.56 0L66.92-15.92L61.60 0L58.40 0L51.44-20L55.00-20L60.04-3.72L65.48-20L68.68-20L74.12-3.72L79.16-20Z M109.88-2.32Q110.68-2.32 111.48-2.52L111.48-2.52L111.28 0Q110.16 0.40 108.88 0.40L108.88 0.40Q107.32 0.40 106.42-0.28Q105.52-0.96 105.28-2.56L105.28-2.56Q104.36-1.16 102.58-0.38Q100.80 0.40 98.84 0.40L98.84 0.40Q95.88 0.40 93.96-0.98Q92.04-2.36 92.04-4.96L92.04-4.96Q92.04-7.24 94.04-8.90Q96.04-10.56 99.84-11.20L99.84-11.20L105.16-12.08L105.16-13.20Q105.16-15.20 103.92-16.40Q102.68-17.60 100.48-17.60L100.48-17.60Q98.48-17.60 97.02-16.64Q95.56-15.68 94.76-13.80L94.76-13.80L92.40-15.52Q93.20-17.76 95.38-19.08Q97.56-20.40 100.48-20.40L100.48-20.40Q104.04-20.40 106.20-18.68Q108.36-16.96 108.36-13.60L108.36-13.60L108.36-3.76Q108.36-3.04 108.72-2.68Q109.08-2.32 109.88-2.32L109.88-2.32ZM99.00-2.40Q101.52-2.40 103.34-3.60Q105.16-4.80 105.16-6.72L105.16-6.72L105.16-9.48L100.68-8.64Q98.00-8.16 96.68-7.26Q95.36-6.36 95.36-4.96L95.36-4.96Q95.36-3.72 96.32-3.06Q97.28-2.40 99.00-2.40L99.00-2.40Z M137.96-20L128.56 3.36Q127.40 6.24 125.96 7.42Q124.52 8.60 122.24 8.60L122.24 8.60Q120.72 8.60 119.70 8.20Q118.68 7.80 117.84 6.92L117.84 6.92L118.96 4.20Q120.12 5.80 122.20 5.80L122.20 5.80Q123.36 5.80 124.26 5.10Q125.16 4.40 125.84 2.56L125.84 2.56L126.88-0.04L118.52-20L122.16-20L127.16-6.96L128.40-3.40L129.84-7.36L134.52-20L137.96-20Z M154.64 0.40Q151.76 0.40 149.44-0.74Q147.12-1.88 146.04-4.12L146.04-4.12L148.64-5.92Q149.32-4.16 151-3.28Q152.68-2.40 154.96-2.40L154.96-2.40Q157.32-2.40 158.56-3.24Q159.80-4.08 159.80-5.36L159.80-5.36Q159.80-6.52 158.64-7.22Q157.48-7.92 154.56-8.44L154.56-8.44Q151.68-8.96 150-9.70Q148.32-10.44 147.56-11.58Q146.80-12.72 146.80-14.40L146.80-14.40Q146.80-16.04 147.76-17.40Q148.72-18.76 150.52-19.58Q152.32-20.40 154.68-20.40L154.68-20.40Q157.88-20.40 159.82-19.22Q161.76-18.04 162.60-15.60L162.60-15.60L159.88-14Q159.24-15.92 157.94-16.76Q156.64-17.60 154.68-17.60L154.68-17.60Q152.72-17.60 151.36-16.72Q150-15.84 150-14.68L150-14.68Q150-13.36 151.18-12.64Q152.36-11.92 155.40-11.40L155.40-11.40Q159.56-10.72 161.28-9.36Q163-8 163-5.52L163-5.52Q163-3.80 161.98-2.46Q160.96-1.12 159.06-0.36Q157.16 0.40 154.64 0.40L154.64 0.40Z M196.16-23.84Q195.08-23.84 194.42-24.50Q193.76-25.16 193.76-26.24L193.76-26.24Q193.76-27.32 194.42-27.98Q195.08-28.64 196.16-28.64L196.16-28.64Q197.24-28.64 197.90-27.98Q198.56-27.32 198.56-26.24L198.56-26.24Q198.56-25.16 197.90-24.50Q197.24-23.84 196.16-23.84L196.16-23.84ZM197.76-20L197.76 0L194.56 0L194.56-20L197.76-20Z M220.92-20.40Q224.32-20.40 226.52-18.44Q228.72-16.48 228.72-12.80L228.72-12.80L228.72 0L225.52 0L225.52-11.68Q225.52-14.80 224.18-16.20Q222.84-17.60 220.60-17.60L220.60-17.60Q219.00-17.60 217.60-16.90Q216.20-16.20 215.30-14.62Q214.40-13.04 214.40-10.64L214.40-10.64L214.40 0L211.20 0L211.20-20L214.00-20L214.20-16.88Q215.20-18.68 216.96-19.54Q218.72-20.40 220.92-20.40L220.92-20.40Z M268.40 0.40Q265.52 0.40 263.20-0.74Q260.88-1.88 259.80-4.12L259.80-4.12L262.40-5.92Q263.08-4.16 264.76-3.28Q266.44-2.40 268.72-2.40L268.72-2.40Q271.08-2.40 272.32-3.24Q273.56-4.08 273.56-5.36L273.56-5.36Q273.56-6.52 272.40-7.22Q271.24-7.92 268.32-8.44L268.32-8.44Q265.44-8.96 263.76-9.70Q262.08-10.44 261.32-11.58Q260.56-12.72 260.56-14.40L260.56-14.40Q260.56-16.04 261.52-17.40Q262.48-18.76 264.28-19.58Q266.08-20.40 268.44-20.40L268.44-20.40Q271.64-20.40 273.58-19.22Q275.52-18.04 276.36-15.60L276.36-15.60L273.64-14Q273-15.92 271.70-16.76Q270.40-17.60 268.44-17.60L268.44-17.60Q266.48-17.60 265.12-16.72Q263.76-15.84 263.76-14.68L263.76-14.68Q263.76-13.36 264.94-12.64Q266.12-11.92 269.16-11.40L269.16-11.40Q273.32-10.72 275.04-9.36Q276.76-8 276.76-5.52L276.76-5.52Q276.76-3.80 275.74-2.46Q274.72-1.12 272.82-0.36Q270.92 0.40 268.40 0.40L268.40 0.40Z M299.80-4.08L300.92-1.40Q298.92 0.40 295.76 0.40L295.76 0.40Q293.32 0.40 291.78-0.92Q290.24-2.24 290.20-4.96L290.20-4.96L290.20-17.24L286.20-17.24L286.20-20L290.20-20L290.20-24.80L293.40-25.68L293.40-20L300.80-20L300.80-17.24L293.40-17.24L293.40-5.52Q293.40-4.08 294.22-3.34Q295.04-2.60 296.40-2.60L296.40-2.60Q298.32-2.60 299.80-4.08L299.80-4.08Z M328.44-20L319.04 3.36Q317.88 6.24 316.44 7.42Q315.00 8.60 312.72 8.60L312.72 8.60Q311.20 8.60 310.18 8.20Q309.16 7.80 308.32 6.92L308.32 6.92L309.44 4.20Q310.60 5.80 312.68 5.80L312.68 5.80Q313.84 5.80 314.74 5.10Q315.64 4.40 316.32 2.56L316.32 2.56L317.36-0.04L309.00-20L312.64-20L317.64-6.96L318.88-3.40L320.32-7.36L325-20L328.44-20Z M341.88-29.20L341.88-5.36Q341.88-3.84 342.34-3.26Q342.80-2.68 344.04-2.68L344.04-2.68Q344.88-2.68 345.50-2.80Q346.12-2.92 346.96-3.24L346.96-3.24L346.44-0.16Q345.12 0.40 343.48 0.40L343.48 0.40Q341.04 0.40 339.86-0.92Q338.68-2.24 338.68-4.96L338.68-4.96L338.68-29.20L341.88-29.20Z M374.24-11.04Q374.24-9.92 374.08-8.80L374.08-8.80L359.00-8.80Q359.28-5.76 361.02-4.08Q362.76-2.40 365.52-2.40L365.52-2.40Q367.72-2.40 369.18-3.16Q370.64-3.92 371.16-5.36L371.16-5.36L373.84-3.96Q372.64-1.84 370.64-0.72Q368.64 0.40 365.52 0.40L365.52 0.40Q361.00 0.40 358.42-2.36Q355.84-5.12 355.84-10L355.84-10Q355.84-14.88 358.30-17.64Q360.76-20.40 365.28-20.40L365.28-20.40Q368.08-20.40 370.12-19.16Q372.16-17.92 373.20-15.80Q374.24-13.68 374.24-11.04L374.24-11.04ZM365.28-17.60Q362.64-17.60 361.02-16.04Q359.40-14.48 359.04-11.64L359.04-11.64L371.16-11.64Q370.84-14.44 369.32-16.02Q367.80-17.60 365.28-17.60L365.28-17.60Z"/></g>
</svg>
</g><g opacity="1" transform="rotate(0 -2.5 196.8639)">
<svg width="380" height="45.2721" x="-2.5" y="196.8639" version="1.1" preserveAspectRatio="none" viewBox="4.8 -28.48 243.07999999999998 28.96">
  <g transform="matrix(1 0 0 1 0 0)" class="companyName"><path d="M29.20-28L27.36-28L27.36-6.60L27.20-6.60L5-28.48L4.80-28.48L4.80 0L6.64 0L6.64-21.40L6.80-21.40L29 0.48L29.20 0.48L29.20-28Z M46.56-20.44L46.56-20.44Q49.48-20.44 51.08-19.62Q52.68-18.80 53.42-17.48Q54.16-16.16 54.28-14.44Q54.40-12.72 54.40-10.92L54.40-10.92L54.40 0L51.16 0L51.16-1.96Q50-0.84 48.20-0.18Q46.40 0.48 44.60 0.48L44.60 0.48Q42.88 0.48 41.56-0.12Q40.24-0.72 39.36-1.68Q38.48-2.64 38.04-3.84Q37.60-5.04 37.60-6.28L37.60-6.28Q37.60-7.56 38.08-8.84Q38.56-10.12 39.52-11.14Q40.48-12.16 41.88-12.80Q43.28-13.44 45.08-13.44L45.08-13.44Q46.88-13.44 48.50-12.74Q50.12-12.04 51.16-10.76L51.16-10.76L51.16-12.48Q51.16-15.76 50.18-17.36Q49.20-18.96 46.60-18.96L46.60-18.96Q45.48-18.96 44.64-18.68Q43.80-18.40 43.14-17.90Q42.48-17.40 41.92-16.66Q41.36-15.92 40.80-15L40.80-15L38.72-17.08Q39.28-17.68 39.90-18.28Q40.52-18.88 41.42-19.36Q42.32-19.84 43.56-20.14Q44.80-20.44 46.56-20.44ZM51.16-4.84L51.16-7.92Q50.96-8.40 50.58-9.04Q50.20-9.68 49.60-10.28Q49-10.88 48.16-11.30Q47.32-11.72 46.16-11.72L46.16-11.72Q45-11.72 44.04-11.26Q43.08-10.80 42.42-10.06Q41.76-9.32 41.40-8.32Q41.04-7.32 41.04-6.24L41.04-6.24Q41.04-4.96 41.50-4.02Q41.96-3.08 42.68-2.42Q43.40-1.76 44.28-1.44Q45.16-1.12 45.96-1.12L45.96-1.12Q46.72-1.12 47.50-1.40Q48.28-1.68 48.98-2.18Q49.68-2.68 50.24-3.36Q50.80-4.04 51.16-4.84L51.16-4.84Z M64.28-18.40L60.80-18.40L60.80-20L64.28-20L64.28-26.16L67.68-26.16L67.68-20L72.52-20L72.52-18.40L67.68-18.40L67.68-5.12Q67.68-4.64 67.72-4.02Q67.76-3.40 67.96-2.86Q68.16-2.32 68.58-1.96Q69-1.60 69.76-1.60L69.76-1.60Q70.72-1.60 71.36-2.32Q72-3.04 72.40-3.88L72.40-3.88L74.28-1.96Q72.32 0 69.84 0L69.84 0Q68.80 0 67.80-0.36Q66.80-0.72 66.02-1.46Q65.24-2.20 64.76-3.36Q64.28-4.52 64.28-6.08L64.28-6.08L64.28-18.40Z M84.48-20L81.08-20L81.08 0L84.48 0L84.48-20ZM80.60-26.32L80.60-26.32Q80.60-25.44 81.24-24.80Q81.88-24.16 82.76-24.16L82.76-24.16Q83.64-24.16 84.28-24.80Q84.92-25.44 84.92-26.32L84.92-26.32Q84.92-27.20 84.28-27.84Q83.64-28.48 82.76-28.48L82.76-28.48Q81.88-28.48 81.24-27.84Q80.60-27.20 80.60-26.32Z M136.12-28L134.28-28L134.28-6.60L134.12-6.60L111.92-28.48L111.72-28.48L111.72 0L113.56 0L113.56-21.40L113.72-21.40L135.92 0.48L136.12 0.48L136.12-28Z M153.48-20.44L153.48-20.44Q156.40-20.44 158-19.62Q159.60-18.80 160.34-17.48Q161.08-16.16 161.20-14.44Q161.32-12.72 161.32-10.92L161.32-10.92L161.32 0L158.08 0L158.08-1.96Q156.92-0.84 155.12-0.18Q153.32 0.48 151.52 0.48L151.52 0.48Q149.80 0.48 148.48-0.12Q147.16-0.72 146.28-1.68Q145.40-2.64 144.96-3.84Q144.52-5.04 144.52-6.28L144.52-6.28Q144.52-7.56 145-8.84Q145.48-10.12 146.44-11.14Q147.40-12.16 148.80-12.80Q150.20-13.44 152-13.44L152-13.44Q153.80-13.44 155.42-12.74Q157.04-12.04 158.08-10.76L158.08-10.76L158.08-12.48Q158.08-15.76 157.10-17.36Q156.12-18.96 153.52-18.96L153.52-18.96Q152.40-18.96 151.56-18.68Q150.72-18.40 150.06-17.90Q149.40-17.40 148.84-16.66Q148.28-15.92 147.72-15L147.72-15L145.64-17.08Q146.20-17.68 146.82-18.28Q147.44-18.88 148.34-19.36Q149.24-19.84 150.48-20.14Q151.72-20.44 153.48-20.44ZM158.08-4.84L158.08-7.92Q157.88-8.40 157.50-9.04Q157.12-9.68 156.52-10.28Q155.92-10.88 155.08-11.30Q154.24-11.72 153.08-11.72L153.08-11.72Q151.92-11.72 150.96-11.26Q150-10.80 149.34-10.06Q148.68-9.32 148.32-8.32Q147.96-7.32 147.96-6.24L147.96-6.24Q147.96-4.96 148.42-4.02Q148.88-3.08 149.60-2.42Q150.32-1.76 151.20-1.44Q152.08-1.12 152.88-1.12L152.88-1.12Q153.64-1.12 154.42-1.40Q155.20-1.68 155.90-2.18Q156.60-2.68 157.16-3.36Q157.72-4.04 158.08-4.84L158.08-4.84Z M171.20-18.40L167.72-18.40L167.72-20L171.20-20L171.20-26.16L174.60-26.16L174.60-20L179.44-20L179.44-18.40L174.60-18.40L174.60-5.12Q174.60-4.64 174.64-4.02Q174.68-3.40 174.88-2.86Q175.08-2.32 175.50-1.96Q175.92-1.60 176.68-1.60L176.68-1.60Q177.64-1.60 178.28-2.32Q178.92-3.04 179.32-3.88L179.32-3.88L181.20-1.96Q179.24 0 176.76 0L176.76 0Q175.72 0 174.72-0.36Q173.72-0.72 172.94-1.46Q172.16-2.20 171.68-3.36Q171.20-4.52 171.20-6.08L171.20-6.08L171.20-18.40Z M194.08-20.44L194.08-20.44Q197.00-20.44 198.60-19.62Q200.20-18.80 200.94-17.48Q201.68-16.16 201.80-14.44Q201.92-12.72 201.92-10.92L201.92-10.92L201.92 0L198.68 0L198.68-1.96Q197.52-0.84 195.72-0.18Q193.92 0.48 192.12 0.48L192.12 0.48Q190.40 0.48 189.08-0.12Q187.76-0.72 186.88-1.68Q186.00-2.64 185.56-3.84Q185.12-5.04 185.12-6.28L185.12-6.28Q185.12-7.56 185.60-8.84Q186.08-10.12 187.04-11.14Q188.00-12.16 189.40-12.80Q190.80-13.44 192.60-13.44L192.60-13.44Q194.40-13.44 196.02-12.74Q197.64-12.04 198.68-10.76L198.68-10.76L198.68-12.48Q198.68-15.76 197.70-17.36Q196.72-18.96 194.12-18.96L194.12-18.96Q193.00-18.96 192.16-18.68Q191.32-18.40 190.66-17.90Q190.00-17.40 189.44-16.66Q188.88-15.92 188.32-15L188.32-15L186.24-17.08Q186.80-17.68 187.42-18.28Q188.04-18.88 188.94-19.36Q189.84-19.84 191.08-20.14Q192.32-20.44 194.08-20.44ZM198.68-4.84L198.68-7.92Q198.48-8.40 198.10-9.04Q197.72-9.68 197.12-10.28Q196.52-10.88 195.68-11.30Q194.84-11.72 193.68-11.72L193.68-11.72Q192.52-11.72 191.56-11.26Q190.60-10.80 189.94-10.06Q189.28-9.32 188.92-8.32Q188.56-7.32 188.56-6.24L188.56-6.24Q188.56-4.96 189.02-4.02Q189.48-3.08 190.20-2.42Q190.92-1.76 191.80-1.44Q192.68-1.12 193.48-1.12L193.48-1.12Q194.24-1.12 195.02-1.40Q195.80-1.68 196.50-2.18Q197.20-2.68 197.76-3.36Q198.32-4.04 198.68-4.84L198.68-4.84Z M220.80-15.44L223.08-15.44Q223.08-16.52 222.52-17.44Q221.96-18.36 220.98-19.02Q220.00-19.68 218.70-20.06Q217.40-20.44 215.92-20.44L215.92-20.44Q214.52-20.44 213.30-20.08Q212.08-19.72 211.18-19Q210.28-18.28 209.76-17.22Q209.24-16.16 209.24-14.76L209.24-14.76Q209.24-12.84 210.12-11.72Q211.00-10.60 212.32-9.92Q213.64-9.24 215.18-8.82Q216.72-8.40 218.04-7.90Q219.36-7.40 220.24-6.64Q221.12-5.88 221.12-4.56L221.12-4.56Q221.12-4 220.94-3.40Q220.76-2.80 220.28-2.30Q219.80-1.80 218.96-1.46Q218.12-1.12 216.84-1.12L216.84-1.12Q215.24-1.12 214.14-1.62Q213.04-2.12 212.34-2.82Q211.64-3.52 211.34-4.24Q211.04-4.96 211.04-5.44L211.04-5.44L208.44-5.44Q208.44-4.32 208.96-3.26Q209.48-2.20 210.54-1.36Q211.60-0.52 213.14-0.02Q214.68 0.48 216.72 0.48L216.72 0.48Q220.40 0.48 222.26-1.14Q224.12-2.76 224.12-5.40L224.12-5.40Q224.12-7.32 223.22-8.48Q222.32-9.64 220.96-10.34Q219.60-11.04 218.02-11.48Q216.44-11.92 215.08-12.40Q213.72-12.88 212.82-13.56Q211.92-14.24 211.92-15.48L211.92-15.48Q211.92-16 212.12-16.58Q212.32-17.16 212.80-17.66Q213.28-18.16 214.08-18.50Q214.88-18.84 216.08-18.84L216.08-18.84Q217.28-18.84 218.16-18.50Q219.04-18.16 219.64-17.66Q220.24-17.16 220.52-16.56Q220.80-15.96 220.80-15.44L220.80-15.44Z M234.92-28L231.52-28L231.52 0L234.92 0L234.92-11.56Q234.92-12.36 235.04-13.52Q235.16-14.68 235.70-15.76Q236.24-16.84 237.32-17.62Q238.40-18.40 240.32-18.40L240.32-18.40Q241.68-18.40 242.50-17.90Q243.32-17.40 243.76-16.56Q244.20-15.72 244.34-14.60Q244.48-13.48 244.48-12.28L244.48-12.28L244.48 0L247.88 0L247.88-13.20Q247.88-15.44 247.24-16.86Q246.60-18.28 245.64-19.08Q244.68-19.88 243.54-20.16Q242.40-20.44 241.36-20.44L241.36-20.44Q239.96-20.44 238.42-19.90Q236.88-19.36 235.52-17.84L235.52-17.84L235.08-17.28L234.92-17.28L234.92-28Z"/></g>
</svg>
</g></svg>