<?xml version="1.0" encoding="UTF-8" standalone="no"?>
<svg
   xmlns:dc="http://purl.org/dc/elements/1.1/"
   xmlns:cc="http://creativecommons.org/ns#"
   xmlns:rdf="http://www.w3.org/1999/02/22-rdf-syntax-ns#"
   xmlns:svg="http://www.w3.org/2000/svg"
   xmlns="http://www.w3.org/2000/svg"
   xmlns:sodipodi="http://sodipodi.sourceforge.net/DTD/sodipodi-0.dtd"
   xmlns:inkscape="http://www.inkscape.org/namespaces/inkscape"
   viewBox="-2.5 82.8648 91.2 47.728001"
   width="1200"
   height="628"
   preserveAspectRatio="none"
   version="1.1"
   id="svg68"
   sodipodi:docname="logo-sm.svg"
   inkscape:version="1.0.2 (e86c870879, 2021-01-15, custom)">
  <metadata
     id="metadata72">
    <rdf:RDF>
      <cc:Work
         rdf:about="">
        <dc:format>image/svg+xml</dc:format>
        <dc:type
           rdf:resource="http://purl.org/dc/dcmitype/StillImage" />
        <dc:title></dc:title>
      </cc:Work>
    </rdf:RDF>
  </metadata>
  <sodipodi:namedview
     pagecolor="#000000"
     bordercolor="#666666"
     borderopacity="1"
     objecttolerance="10"
     gridtolerance="10"
     guidetolerance="10"
     inkscape:pageopacity="0"
     inkscape:pageshadow="2"
     inkscape:window-width="1920"
     inkscape:window-height="1001"
     id="namedview70"
     showgrid="false"
     inkscape:snap-global="false"
     inkscape:zoom="1.165"
     inkscape:cx="600"
     inkscape:cy="314"
     inkscape:window-x="-9"
     inkscape:window-y="-9"
     inkscape:window-maximized="1"
     inkscape:current-layer="svg68" />
  <defs
     id="defs42" />
  <style
     id="style44">.aaPBVVfuKfillColor {fill:#2E2E2E;fill-opacity:0;}.aaPBVVfuKstrokeColor-str {stroke:#E35F21;stroke-opacity:0.2;}.companyName {fill:#EEF8F7;fill-opacity:1;}.icon1 {fill:#E35F21;fill-opacity:1;}</style>
  <g
     opacity="1"
     id="g50"
     transform="matrix(0.15180628,0,0,0.15180628,14.694009,74.169598)">
    <svg
       width="273.29099"
       height="273.27039"
       x="50.8545"
       y="82.864799"
       version="1.1"
       preserveAspectRatio="none"
       viewBox="0 0 273.291 273.2704"
       id="svg48">
      <rect
         x="2.5"
         y="2.5"
         width="268.29099"
         height="268.27039"
         class="aaPBVVfuKfillColor aaPBVVfuKstrokeColor-str"
         style="stroke-width:5"
         rx="0%"
         ry="0%"
         id="rect46" />
    </svg>
  </g>
  <g
     opacity="1"
     id="g58"
     transform="matrix(0.15180628,0,0,0.15180628,14.694009,74.169598)">
    <svg
       width="182.7468"
       height="18.108801"
       x="96.126602"
       y="264.77209"
       version="1.1"
       preserveAspectRatio="none"
       viewBox="1.04 -29.2 381.56 37.8"
       id="svg56">
      <g
         class="icon1"
         id="g54">
        <path
           d="m 21.96,0 -2.8,-7.32 H 7.2 L 4.4,0 H 1.04 l 10.28,-26.4 h 3.8 L 25.36,0 Z M 8.36,-10.32 H 18 l -3.56,-9.36 -1.24,-3.68 h -0.08 l -1.16,3.56 z m 30.8,-18.88 v 23.84 q 0,1.52 0.46,2.1 0.46,0.58 1.7,0.58 v 0 q 0.84,0 1.46,-0.12 0.62,-0.12 1.46,-0.44 v 0 l -0.52,3.08 Q 42.4,0.4 40.76,0.4 v 0 q -2.44,0 -3.62,-1.32 -1.18,-1.32 -1.18,-4.04 v 0 -24.24 z m 40,9.2 h 3.56 L 75.76,0 h -3.2 L 66.92,-15.92 61.6,0 H 58.4 L 51.44,-20 H 55 L 60.04,-3.72 65.48,-20 h 3.2 l 5.44,16.28 z m 30.72,17.68 q 0.8,0 1.6,-0.2 v 0 L 111.28,0 q -1.12,0.4 -2.4,0.4 v 0 q -1.56,0 -2.46,-0.68 -0.9,-0.68 -1.14,-2.28 v 0 q -0.92,1.4 -2.7,2.18 -1.78,0.78 -3.74,0.78 v 0 q -2.96,0 -4.88,-1.38 -1.92,-1.38 -1.92,-3.98 v 0 q 0,-2.28 2,-3.94 2,-1.66 5.8,-2.3 v 0 l 5.32,-0.88 v -1.12 q 0,-2 -1.24,-3.2 -1.24,-1.2 -3.44,-1.2 v 0 q -2,0 -3.46,0.96 -1.46,0.96 -2.26,2.84 v 0 l -2.36,-1.72 q 0.8,-2.24 2.98,-3.56 2.18,-1.32 5.1,-1.32 v 0 q 3.56,0 5.72,1.72 2.16,1.72 2.16,5.08 v 0 9.84 q 0,0.72 0.36,1.08 0.36,0.36 1.16,0.36 z M 99,-2.4 q 2.52,0 4.34,-1.2 1.82,-1.2 1.82,-3.12 v 0 -2.76 l -4.48,0.84 q -2.68,0.48 -4,1.38 -1.32,0.9 -1.32,2.3 v 0 q 0,1.24 0.96,1.9 0.96,0.66 2.68,0.66 z m 38.96,-17.6 -9.4,23.36 q -1.16,2.88 -2.6,4.06 -1.44,1.18 -3.72,1.18 v 0 q -1.52,0 -2.54,-0.4 -1.02,-0.4 -1.86,-1.28 v 0 l 1.12,-2.72 q 1.16,1.6 3.24,1.6 v 0 q 1.16,0 2.06,-0.7 0.9,-0.7 1.58,-2.54 v 0 l 1.04,-2.6 -8.36,-19.96 h 3.64 l 5,13.04 1.24,3.56 1.44,-3.96 4.68,-12.64 z m 16.68,20.4 q -2.88,0 -5.2,-1.14 -2.32,-1.14 -3.4,-3.38 v 0 l 2.6,-1.8 q 0.68,1.76 2.36,2.64 1.68,0.88 3.96,0.88 v 0 q 2.36,0 3.6,-0.84 1.24,-0.84 1.24,-2.12 v 0 q 0,-1.16 -1.16,-1.86 -1.16,-0.7 -4.08,-1.22 v 0 q -2.88,-0.52 -4.56,-1.26 -1.68,-0.74 -2.44,-1.88 -0.76,-1.14 -0.76,-2.82 v 0 q 0,-1.64 0.96,-3 0.96,-1.36 2.76,-2.18 1.8,-0.82 4.16,-0.82 v 0 q 3.2,0 5.14,1.18 1.94,1.18 2.78,3.62 v 0 l -2.72,1.6 q -0.64,-1.92 -1.94,-2.76 -1.3,-0.84 -3.26,-0.84 v 0 q -1.96,0 -3.32,0.88 -1.36,0.88 -1.36,2.04 v 0 q 0,1.32 1.18,2.04 1.18,0.72 4.22,1.24 v 0 q 4.16,0.68 5.88,2.04 Q 163,-8 163,-5.52 v 0 q 0,1.72 -1.02,3.06 -1.02,1.34 -2.92,2.1 -1.9,0.76 -4.42,0.76 z m 41.52,-24.24 q -1.08,0 -1.74,-0.66 -0.66,-0.66 -0.66,-1.74 v 0 q 0,-1.08 0.66,-1.74 0.66,-0.66 1.74,-0.66 v 0 q 1.08,0 1.74,0.66 0.66,0.66 0.66,1.74 v 0 q 0,1.08 -0.66,1.74 -0.66,0.66 -1.74,0.66 z m 1.6,3.84 V 0 h -3.2 v -20 z m 23.16,-0.4 q 3.4,0 5.6,1.96 2.2,1.96 2.2,5.64 v 0 V 0 h -3.2 v -11.68 q 0,-3.12 -1.34,-4.52 -1.34,-1.4 -3.58,-1.4 v 0 q -1.6,0 -3,0.7 -1.4,0.7 -2.3,2.28 -0.9,1.58 -0.9,3.98 v 0 V 0 h -3.2 v -20 h 2.8 l 0.2,3.12 q 1,-1.8 2.76,-2.66 1.76,-0.86 3.96,-0.86 z M 268.4,0.4 q -2.88,0 -5.2,-1.14 -2.32,-1.14 -3.4,-3.38 v 0 l 2.6,-1.8 q 0.68,1.76 2.36,2.64 1.68,0.88 3.96,0.88 v 0 q 2.36,0 3.6,-0.84 1.24,-0.84 1.24,-2.12 v 0 q 0,-1.16 -1.16,-1.86 -1.16,-0.7 -4.08,-1.22 v 0 q -2.88,-0.52 -4.56,-1.26 -1.68,-0.74 -2.44,-1.88 -0.76,-1.14 -0.76,-2.82 v 0 q 0,-1.64 0.96,-3 0.96,-1.36 2.76,-2.18 1.8,-0.82 4.16,-0.82 v 0 q 3.2,0 5.14,1.18 1.94,1.18 2.78,3.62 v 0 l -2.72,1.6 q -0.64,-1.92 -1.94,-2.76 -1.3,-0.84 -3.26,-0.84 v 0 q -1.96,0 -3.32,0.88 -1.36,0.88 -1.36,2.04 v 0 q 0,1.32 1.18,2.04 1.18,0.72 4.22,1.24 v 0 q 4.16,0.68 5.88,2.04 1.72,1.36 1.72,3.84 v 0 q 0,1.72 -1.02,3.06 -1.02,1.34 -2.92,2.1 -1.9,0.76 -4.42,0.76 z m 31.4,-4.48 1.12,2.68 q -2,1.8 -5.16,1.8 v 0 q -2.44,0 -3.98,-1.32 -1.54,-1.32 -1.58,-4.04 v 0 -12.28 h -4 V -20 h 4 v -4.8 l 3.2,-0.88 V -20 h 7.4 v 2.76 h -7.4 v 11.72 q 0,1.44 0.82,2.18 0.82,0.74 2.18,0.74 v 0 q 1.92,0 3.4,-1.48 z M 328.44,-20 319.04,3.36 q -1.16,2.88 -2.6,4.06 Q 315,8.6 312.72,8.6 v 0 q -1.52,0 -2.54,-0.4 -1.02,-0.4 -1.86,-1.28 v 0 l 1.12,-2.72 q 1.16,1.6 3.24,1.6 v 0 q 1.16,0 2.06,-0.7 0.9,-0.7 1.58,-2.54 v 0 l 1.04,-2.6 L 309,-20 h 3.64 l 5,13.04 1.24,3.56 1.44,-3.96 L 325,-20 Z m 13.44,-9.2 v 23.84 q 0,1.52 0.46,2.1 0.46,0.58 1.7,0.58 v 0 q 0.84,0 1.46,-0.12 0.62,-0.12 1.46,-0.44 v 0 l -0.52,3.08 q -1.32,0.56 -2.96,0.56 v 0 q -2.44,0 -3.62,-1.32 -1.18,-1.32 -1.18,-4.04 v 0 -24.24 z m 32.36,18.16 q 0,1.12 -0.16,2.24 v 0 H 359 q 0.28,3.04 2.02,4.72 1.74,1.68 4.5,1.68 v 0 q 2.2,0 3.66,-0.76 1.46,-0.76 1.98,-2.2 v 0 l 2.68,1.4 q -1.2,2.12 -3.2,3.24 -2,1.12 -5.12,1.12 v 0 q -4.52,0 -7.1,-2.76 -2.58,-2.76 -2.58,-7.64 v 0 q 0,-4.88 2.46,-7.64 2.46,-2.76 6.98,-2.76 v 0 q 2.8,0 4.84,1.24 2.04,1.24 3.08,3.36 1.04,2.12 1.04,4.76 z m -8.96,-6.56 q -2.64,0 -4.26,1.56 -1.62,1.56 -1.98,4.4 v 0 h 12.12 q -0.32,-2.8 -1.84,-4.38 -1.52,-1.58 -4.04,-1.58 z"
           id="path52" />
      </g>
    </svg>
  </g>
  <g
     opacity="1"
     id="g66"
     transform="matrix(0.15180628,0,0,0.15180628,14.694009,74.169598)">
    <svg
       width="380"
       height="45.272099"
       x="-2.5"
       y="196.86391"
       version="1.1"
       preserveAspectRatio="none"
       viewBox="4.8 -28.48 243.08 28.96"
       id="svg64">
      <g
         class="companyName"
         id="g62">
        <path
           d="M 29.2,-28 H 27.36 V -6.6 H 27.2 L 5,-28.48 H 4.8 V 0 H 6.64 V -21.4 H 6.8 L 29,0.48 h 0.2 z m 17.36,7.56 v 0 q 2.92,0 4.52,0.82 1.6,0.82 2.34,2.14 0.74,1.32 0.86,3.04 0.12,1.72 0.12,3.52 v 0 V 0 H 51.16 V -1.96 Q 50,-0.84 48.2,-0.18 46.4,0.48 44.6,0.48 v 0 q -1.72,0 -3.04,-0.6 -1.32,-0.6 -2.2,-1.56 -0.88,-0.96 -1.32,-2.16 -0.44,-1.2 -0.44,-2.44 v 0 q 0,-1.28 0.48,-2.56 0.48,-1.28 1.44,-2.3 0.96,-1.02 2.36,-1.66 1.4,-0.64 3.2,-0.64 v 0 q 1.8,0 3.42,0.7 1.62,0.7 2.66,1.98 v 0 -1.72 q 0,-3.28 -0.98,-4.88 -0.98,-1.6 -3.58,-1.6 v 0 q -1.12,0 -1.96,0.28 -0.84,0.28 -1.5,0.78 -0.66,0.5 -1.22,1.24 -0.56,0.74 -1.12,1.66 v 0 l -2.08,-2.08 q 0.56,-0.6 1.18,-1.2 0.62,-0.6 1.52,-1.08 0.9,-0.48 2.14,-0.78 1.24,-0.3 3,-0.3 z m 4.6,15.6 v -3.08 q -0.2,-0.48 -0.58,-1.12 -0.38,-0.64 -0.98,-1.24 -0.6,-0.6 -1.44,-1.02 -0.84,-0.42 -2,-0.42 v 0 q -1.16,0 -2.12,0.46 -0.96,0.46 -1.62,1.2 -0.66,0.74 -1.02,1.74 -0.36,1 -0.36,2.08 v 0 q 0,1.28 0.46,2.22 0.46,0.94 1.18,1.6 0.72,0.66 1.6,0.98 0.88,0.32 1.68,0.32 v 0 q 0.76,0 1.54,-0.28 0.78,-0.28 1.48,-0.78 0.7,-0.5 1.26,-1.18 0.56,-0.68 0.92,-1.48 z M 64.28,-18.4 H 60.8 V -20 h 3.48 v -6.16 h 3.4 V -20 h 4.84 v 1.6 h -4.84 v 13.28 q 0,0.48 0.04,1.1 0.04,0.62 0.24,1.16 0.2,0.54 0.62,0.9 0.42,0.36 1.18,0.36 v 0 q 0.96,0 1.6,-0.72 0.64,-0.72 1.04,-1.56 v 0 l 1.88,1.92 Q 72.32,0 69.84,0 v 0 q -1.04,0 -2.04,-0.36 -1,-0.36 -1.78,-1.1 -0.78,-0.74 -1.26,-1.9 -0.48,-1.16 -0.48,-2.72 v 0 z m 20.2,-1.6 h -3.4 V 0 h 3.4 z m -3.88,-6.32 v 0 q 0,0.88 0.64,1.52 0.64,0.64 1.52,0.64 v 0 q 0.88,0 1.52,-0.64 0.64,-0.64 0.64,-1.52 v 0 q 0,-0.88 -0.64,-1.52 -0.64,-0.64 -1.52,-0.64 v 0 q -0.88,0 -1.52,0.64 -0.64,0.64 -0.64,1.52 z M 136.12,-28 h -1.84 v 21.4 h -0.16 l -22.2,-21.88 h -0.2 V 0 h 1.84 v -21.4 h 0.16 l 22.2,21.88 h 0.2 z m 17.36,7.56 v 0 q 2.92,0 4.52,0.82 1.6,0.82 2.34,2.14 0.74,1.32 0.86,3.04 0.12,1.72 0.12,3.52 v 0 V 0 h -3.24 v -1.96 q -1.16,1.12 -2.96,1.78 -1.8,0.66 -3.6,0.66 v 0 q -1.72,0 -3.04,-0.6 -1.32,-0.6 -2.2,-1.56 -0.88,-0.96 -1.32,-2.16 -0.44,-1.2 -0.44,-2.44 v 0 q 0,-1.28 0.48,-2.56 0.48,-1.28 1.44,-2.3 0.96,-1.02 2.36,-1.66 1.4,-0.64 3.2,-0.64 v 0 q 1.8,0 3.42,0.7 1.62,0.7 2.66,1.98 v 0 -1.72 q 0,-3.28 -0.98,-4.88 -0.98,-1.6 -3.58,-1.6 v 0 q -1.12,0 -1.96,0.28 -0.84,0.28 -1.5,0.78 -0.66,0.5 -1.22,1.24 -0.56,0.74 -1.12,1.66 v 0 l -2.08,-2.08 q 0.56,-0.6 1.18,-1.2 0.62,-0.6 1.52,-1.08 0.9,-0.48 2.14,-0.78 1.24,-0.3 3,-0.3 z m 4.6,15.6 v -3.08 q -0.2,-0.48 -0.58,-1.12 -0.38,-0.64 -0.98,-1.24 -0.6,-0.6 -1.44,-1.02 -0.84,-0.42 -2,-0.42 v 0 q -1.16,0 -2.12,0.46 -0.96,0.46 -1.62,1.2 -0.66,0.74 -1.02,1.74 -0.36,1 -0.36,2.08 v 0 q 0,1.28 0.46,2.22 0.46,0.94 1.18,1.6 0.72,0.66 1.6,0.98 0.88,0.32 1.68,0.32 v 0 q 0.76,0 1.54,-0.28 0.78,-0.28 1.48,-0.78 0.7,-0.5 1.26,-1.18 0.56,-0.68 0.92,-1.48 z M 171.2,-18.4 h -3.48 V -20 h 3.48 v -6.16 h 3.4 V -20 h 4.84 v 1.6 h -4.84 v 13.28 q 0,0.48 0.04,1.1 0.04,0.62 0.24,1.16 0.2,0.54 0.62,0.9 0.42,0.36 1.18,0.36 v 0 q 0.96,0 1.6,-0.72 0.64,-0.72 1.04,-1.56 v 0 l 1.88,1.92 Q 179.24,0 176.76,0 v 0 q -1.04,0 -2.04,-0.36 -1,-0.36 -1.78,-1.1 -0.78,-0.74 -1.26,-1.9 -0.48,-1.16 -0.48,-2.72 v 0 z m 22.88,-2.04 v 0 q 2.92,0 4.52,0.82 1.6,0.82 2.34,2.14 0.74,1.32 0.86,3.04 0.12,1.72 0.12,3.52 v 0 V 0 h -3.24 v -1.96 q -1.16,1.12 -2.96,1.78 -1.8,0.66 -3.6,0.66 v 0 q -1.72,0 -3.04,-0.6 -1.32,-0.6 -2.2,-1.56 -0.88,-0.96 -1.32,-2.16 -0.44,-1.2 -0.44,-2.44 v 0 q 0,-1.28 0.48,-2.56 0.48,-1.28 1.44,-2.3 0.96,-1.02 2.36,-1.66 1.4,-0.64 3.2,-0.64 v 0 q 1.8,0 3.42,0.7 1.62,0.7 2.66,1.98 v 0 -1.72 q 0,-3.28 -0.98,-4.88 -0.98,-1.6 -3.58,-1.6 v 0 q -1.12,0 -1.96,0.28 -0.84,0.28 -1.5,0.78 -0.66,0.5 -1.22,1.24 -0.56,0.74 -1.12,1.66 v 0 l -2.08,-2.08 q 0.56,-0.6 1.18,-1.2 0.62,-0.6 1.52,-1.08 0.9,-0.48 2.14,-0.78 1.24,-0.3 3,-0.3 z m 4.6,15.6 v -3.08 q -0.2,-0.48 -0.58,-1.12 -0.38,-0.64 -0.98,-1.24 -0.6,-0.6 -1.44,-1.02 -0.84,-0.42 -2,-0.42 v 0 q -1.16,0 -2.12,0.46 -0.96,0.46 -1.62,1.2 -0.66,0.74 -1.02,1.74 -0.36,1 -0.36,2.08 v 0 q 0,1.28 0.46,2.22 0.46,0.94 1.18,1.6 0.72,0.66 1.6,0.98 0.88,0.32 1.68,0.32 v 0 q 0.76,0 1.54,-0.28 0.78,-0.28 1.48,-0.78 0.7,-0.5 1.26,-1.18 0.56,-0.68 0.92,-1.48 z m 22.12,-10.6 h 2.28 q 0,-1.08 -0.56,-2 -0.56,-0.92 -1.54,-1.58 -0.98,-0.66 -2.28,-1.04 -1.3,-0.38 -2.78,-0.38 v 0 q -1.4,0 -2.62,0.36 -1.22,0.36 -2.12,1.08 -0.9,0.72 -1.42,1.78 -0.52,1.06 -0.52,2.46 v 0 q 0,1.92 0.88,3.04 0.88,1.12 2.2,1.8 1.32,0.68 2.86,1.1 1.54,0.42 2.86,0.92 1.32,0.5 2.2,1.26 0.88,0.76 0.88,2.08 v 0 q 0,0.56 -0.18,1.16 -0.18,0.6 -0.66,1.1 -0.48,0.5 -1.32,0.84 -0.84,0.34 -2.12,0.34 v 0 q -1.6,0 -2.7,-0.5 -1.1,-0.5 -1.8,-1.2 -0.7,-0.7 -1,-1.42 -0.3,-0.72 -0.3,-1.2 v 0 h -2.6 q 0,1.12 0.52,2.18 0.52,1.06 1.58,1.9 1.06,0.84 2.6,1.34 1.54,0.5 3.58,0.5 v 0 q 3.68,0 5.54,-1.62 1.86,-1.62 1.86,-4.26 v 0 q 0,-1.92 -0.9,-3.08 -0.9,-1.16 -2.26,-1.86 -1.36,-0.7 -2.94,-1.14 -1.58,-0.44 -2.94,-0.92 -1.36,-0.48 -2.26,-1.16 -0.9,-0.68 -0.9,-1.92 v 0 q 0,-0.52 0.2,-1.1 0.2,-0.58 0.68,-1.08 0.48,-0.5 1.28,-0.84 0.8,-0.34 2,-0.34 v 0 q 1.2,0 2.08,0.34 0.88,0.34 1.48,0.84 0.6,0.5 0.88,1.1 0.28,0.6 0.28,1.12 z M 234.92,-28 h -3.4 V 0 h 3.4 v -11.56 q 0,-0.8 0.12,-1.96 0.12,-1.16 0.66,-2.24 0.54,-1.08 1.62,-1.86 1.08,-0.78 3,-0.78 v 0 q 1.36,0 2.18,0.5 0.82,0.5 1.26,1.34 0.44,0.84 0.58,1.96 0.14,1.12 0.14,2.32 v 0 V 0 h 3.4 v -13.2 q 0,-2.24 -0.64,-3.66 -0.64,-1.42 -1.6,-2.22 -0.96,-0.8 -2.1,-1.08 -1.14,-0.28 -2.18,-0.28 v 0 q -1.4,0 -2.94,0.54 -1.54,0.54 -2.9,2.06 v 0 l -0.44,0.56 h -0.16 z"
           id="path60" />
      </g>
    </svg>
  </g>
</svg>
